<?xml version="1.0" encoding="UTF-8" standalone="no"?>
<!DOCTYPE svg PUBLIC "-//W3C//DTD SVG 1.1//EN"
 "http://www.w3.org/Graphics/SVG/1.1/DTD/svg11.dtd">
<!-- Generated by graphviz version 2.43.0 (0)
 -->
<!-- Title: G Pages: 1 -->
<svg width="797pt" height="508pt"
 viewBox="0.00 0.00 796.80 507.55" xmlns="http://www.w3.org/2000/svg" xmlns:xlink="http://www.w3.org/1999/xlink">
<g id="graph0" class="graph" transform="scale(1 1) rotate(0) translate(14.4 493.15)">
<title>G</title>
<!-- raw.customers -->
<g id="node1" class="node">
<title>raw.customers</title>
<path fill="#2a2f4f" stroke="#8a8fa8" stroke-width="1.6" d="M121.5,-168.4C121.5,-170.73 95.06,-172.63 62.5,-172.63 29.94,-172.63 3.5,-170.73 3.5,-168.4 3.5,-168.4 3.5,-130.35 3.5,-130.35 3.5,-128.02 29.94,-126.12 62.5,-126.12 95.06,-126.12 121.5,-128.02 121.5,-130.35 121.5,-130.35 121.5,-168.4 121.5,-168.4"/>
<path fill="none" stroke="#8a8fa8" stroke-width="1.6" d="M121.5,-168.4C121.5,-166.07 95.06,-164.17 62.5,-164.17 29.94,-164.17 3.5,-166.07 3.5,-168.4"/>
<text text-anchor="middle" x="62.5" y="-146.57" font-family="Helvetica,sans-Serif" font-size="11.00" fill="#e8e8f2">raw.customers</text>
</g>
<!-- stg_customers -->
<g id="node15" class="node">
<title>stg_customers</title>
<path fill="#16213e" stroke="#5aa9ff" stroke-width="1.6" d="M298.5,-164.38C298.5,-164.38 205.5,-164.38 205.5,-164.38 199.5,-164.38 193.5,-158.38 193.5,-152.38 193.5,-152.38 193.5,-140.38 193.5,-140.38 193.5,-134.38 199.5,-128.38 205.5,-128.38 205.5,-128.38 298.5,-128.38 298.5,-128.38 304.5,-128.38 310.5,-134.38 310.5,-140.38 310.5,-140.38 310.5,-152.38 310.5,-152.38 310.5,-158.38 304.5,-164.38 298.5,-164.38"/>
<text text-anchor="middle" x="252" y="-143.57" font-family="Helvetica,sans-Serif" font-size="11.00" fill="#e8e8f2">stg_customers</text>
</g>
<!-- raw.customers&#45;&gt;stg_customers -->
<g id="edge12" class="edge">
<title>raw.customers&#45;&gt;stg_customers</title>
<path fill="none" stroke="#8a8fa8" stroke-width="1.6" d="M121.54,-148.45C141.67,-148.12 164.38,-147.76 185.1,-147.43"/>
<polygon fill="#8a8fa8" stroke="#8a8fa8" stroke-width="1.6" points="185.28,-150.23 193.23,-147.3 185.19,-144.63 185.28,-150.23"/>
</g>
<!-- raw.events -->
<g id="node2" class="node">
<title>raw.events</title>
<path fill="#2a2f4f" stroke="#8a8fa8" stroke-width="1.6" d="M111,-318.4C111,-320.73 89.26,-322.63 62.5,-322.63 35.74,-322.63 14,-320.73 14,-318.4 14,-318.4 14,-280.35 14,-280.35 14,-278.02 35.74,-276.12 62.5,-276.12 89.26,-276.12 111,-278.02 111,-280.35 111,-280.35 111,-318.4 111,-318.4"/>
<path fill="none" stroke="#8a8fa8" stroke-width="1.6" d="M111,-318.4C111,-316.07 89.26,-314.17 62.5,-314.17 35.74,-314.17 14,-316.07 14,-318.4"/>
<text text-anchor="middle" x="62.5" y="-296.57" font-family="Helvetica,sans-Serif" font-size="11.00" fill="#e8e8f2">raw.events</text>
</g>
<!-- stg_events -->
<g id="node16" class="node">
<title>stg_events</title>
<path fill="#16213e" stroke="#5aa9ff" stroke-width="1.6" d="M288.5,-317.38C288.5,-317.38 215.5,-317.38 215.5,-317.38 209.5,-317.38 203.5,-311.38 203.5,-305.38 203.5,-305.38 203.5,-293.38 203.5,-293.38 203.5,-287.38 209.5,-281.38 215.5,-281.38 215.5,-281.38 288.5,-281.38 288.5,-281.38 294.5,-281.38 300.5,-287.38 300.5,-293.38 300.5,-293.38 300.5,-305.38 300.5,-305.38 300.5,-311.38 294.5,-317.38 288.5,-317.38"/>
<text text-anchor="middle" x="252" y="-296.57" font-family="Helvetica,sans-Serif" font-size="11.00" fill="#e8e8f2">stg_events</text>
</g>
<!-- raw.events&#45;&gt;stg_events -->
<g id="edge13" class="edge">
<title>raw.events&#45;&gt;stg_events</title>
<path fill="none" stroke="#8a8fa8" stroke-width="1.6" d="M111.3,-299.38C136.86,-299.38 168.49,-299.38 195.18,-299.38"/>
<polygon fill="#8a8fa8" stroke="#8a8fa8" stroke-width="1.6" points="195.29,-302.18 203.29,-299.38 195.29,-296.58 195.29,-302.18"/>
</g>
<!-- raw.order_items -->
<g id="node3" class="node">
<title>raw.order_items</title>
<path fill="#2a2f4f" stroke="#8a8fa8" stroke-width="1.6" d="M125,-105.4C125,-107.73 96.99,-109.63 62.5,-109.63 28.01,-109.63 0,-107.73 0,-105.4 0,-105.4 0,-67.35 0,-67.35 0,-65.02 28.01,-63.12 62.5,-63.12 96.99,-63.12 125,-65.02 125,-67.35 125,-67.35 125,-105.4 125,-105.4"/>
<path fill="none" stroke="#8a8fa8" stroke-width="1.6" d="M125,-105.4C125,-103.07 96.99,-101.17 62.5,-101.17 28.01,-101.17 0,-103.07 0,-105.4"/>
<text text-anchor="middle" x="62.5" y="-83.58" font-family="Helvetica,sans-Serif" font-size="11.00" fill="#e8e8f2">raw.order_items</text>
</g>
<!-- stg_order_items -->
<g id="node17" class="node">
<title>stg_order_items</title>
<path fill="#16213e" stroke="#5aa9ff" stroke-width="1.6" d="M302,-104.38C302,-104.38 202,-104.38 202,-104.38 196,-104.38 190,-98.38 190,-92.38 190,-92.38 190,-80.38 190,-80.38 190,-74.38 196,-68.38 202,-68.38 202,-68.38 302,-68.38 302,-68.38 308,-68.38 314,-74.38 314,-80.38 314,-80.38 314,-92.38 314,-92.38 314,-98.38 308,-104.38 302,-104.38"/>
<text text-anchor="middle" x="252" y="-83.58" font-family="Helvetica,sans-Serif" font-size="11.00" fill="#e8e8f2">stg_order_items</text>
</g>
<!-- raw.order_items&#45;&gt;stg_order_items -->
<g id="edge14" class="edge">
<title>raw.order_items&#45;&gt;stg_order_items</title>
<path fill="none" stroke="#8a8fa8" stroke-width="1.6" d="M125.15,-86.38C143.28,-86.38 163.24,-86.38 181.81,-86.38"/>
<polygon fill="#8a8fa8" stroke="#8a8fa8" stroke-width="1.6" points="181.95,-89.18 189.95,-86.38 181.95,-83.58 181.95,-89.18"/>
</g>
<!-- raw.orders -->
<g id="node4" class="node">
<title>raw.orders</title>
<path fill="#2a2f4f" stroke="#8a8fa8" stroke-width="1.6" d="M110,-42.4C110,-44.73 88.71,-46.63 62.5,-46.63 36.29,-46.63 15,-44.73 15,-42.4 15,-42.4 15,-4.35 15,-4.35 15,-2.02 36.29,-0.12 62.5,-0.12 88.71,-0.12 110,-2.02 110,-4.35 110,-4.35 110,-42.4 110,-42.4"/>
<path fill="none" stroke="#8a8fa8" stroke-width="1.6" d="M110,-42.4C110,-40.07 88.71,-38.17 62.5,-38.17 36.29,-38.17 15,-40.07 15,-42.4"/>
<text text-anchor="middle" x="62.5" y="-20.57" font-family="Helvetica,sans-Serif" font-size="11.00" fill="#e8e8f2">raw.orders</text>
</g>
<!-- stg_orders -->
<g id="node18" class="node">
<title>stg_orders</title>
<path fill="#16213e" stroke="#5aa9ff" stroke-width="1.6" d="M287,-47.38C287,-47.38 217,-47.38 217,-47.38 211,-47.38 205,-41.38 205,-35.38 205,-35.38 205,-23.37 205,-23.37 205,-17.38 211,-11.38 217,-11.38 217,-11.38 287,-11.38 287,-11.38 293,-11.38 299,-17.38 299,-23.38 299,-23.38 299,-35.38 299,-35.38 299,-41.38 293,-47.38 287,-47.38"/>
<text text-anchor="middle" x="252" y="-26.57" font-family="Helvetica,sans-Serif" font-size="11.00" fill="#e8e8f2">stg_orders</text>
</g>
<!-- raw.orders&#45;&gt;stg_orders -->
<g id="edge15" class="edge">
<title>raw.orders&#45;&gt;stg_orders</title>
<path fill="none" stroke="#8a8fa8" stroke-width="1.6" d="M110.33,-24.87C136.48,-25.71 169.19,-26.76 196.48,-27.63"/>
<polygon fill="#8a8fa8" stroke="#8a8fa8" stroke-width="1.6" points="196.68,-30.44 204.77,-27.9 196.86,-24.84 196.68,-30.44"/>
</g>
<!-- raw.products -->
<g id="node5" class="node">
<title>raw.products</title>
<path fill="#2a2f4f" stroke="#8a8fa8" stroke-width="1.6" d="M116.5,-474.4C116.5,-476.73 92.3,-478.63 62.5,-478.63 32.7,-478.63 8.5,-476.73 8.5,-474.4 8.5,-474.4 8.5,-436.35 8.5,-436.35 8.5,-434.02 32.7,-432.12 62.5,-432.12 92.3,-432.12 116.5,-434.02 116.5,-436.35 116.5,-436.35 116.5,-474.4 116.5,-474.4"/>
<path fill="none" stroke="#8a8fa8" stroke-width="1.6" d="M116.5,-474.4C116.5,-472.07 92.3,-470.17 62.5,-470.17 32.7,-470.17 8.5,-472.07 8.5,-474.4"/>
<text text-anchor="middle" x="62.5" y="-452.57" font-family="Helvetica,sans-Serif" font-size="11.00" fill="#e8e8f2">raw.products</text>
</g>
<!-- stg_products -->
<g id="node19" class="node">
<title>stg_products</title>
<path fill="#16213e" stroke="#5aa9ff" stroke-width="1.6" d="M293.5,-473.38C293.5,-473.38 210.5,-473.38 210.5,-473.38 204.5,-473.38 198.5,-467.38 198.5,-461.38 198.5,-461.38 198.5,-449.38 198.5,-449.38 198.5,-443.38 204.5,-437.38 210.5,-437.38 210.5,-437.38 293.5,-437.38 293.5,-437.38 299.5,-437.38 305.5,-443.38 305.5,-449.38 305.5,-449.38 305.5,-461.38 305.5,-461.38 305.5,-467.38 299.5,-473.38 293.5,-473.38"/>
<text text-anchor="middle" x="252" y="-452.57" font-family="Helvetica,sans-Serif" font-size="11.00" fill="#e8e8f2">stg_products</text>
</g>
<!-- raw.products&#45;&gt;stg_products -->
<g id="edge16" class="edge">
<title>raw.products&#45;&gt;stg_products</title>
<path fill="none" stroke="#8a8fa8" stroke-width="1.6" d="M116.73,-455.38C139.58,-455.38 166.42,-455.38 190.07,-455.38"/>
<polygon fill="#8a8fa8" stroke="#8a8fa8" stroke-width="1.6" points="190.29,-458.18 198.29,-455.38 190.29,-452.58 190.29,-458.18"/>
</g>
<!-- daily_add_to_cart_events -->
<g id="node6" class="node">
<title>daily_add_to_cart_events</title>
<path fill="#16213e" stroke="#00d4aa" stroke-width="1.6" d="M552.5,-421.38C552.5,-421.38 401.5,-421.38 401.5,-421.38 395.5,-421.38 389.5,-415.38 389.5,-409.38 389.5,-409.38 389.5,-397.38 389.5,-397.38 389.5,-391.38 395.5,-385.38 401.5,-385.38 401.5,-385.38 552.5,-385.38 552.5,-385.38 558.5,-385.38 564.5,-391.38 564.5,-397.38 564.5,-397.38 564.5,-409.38 564.5,-409.38 564.5,-415.38 558.5,-421.38 552.5,-421.38"/>
<text text-anchor="middle" x="477" y="-400.57" font-family="Helvetica,sans-Serif" font-size="11.00" fill="#e8e8f2">daily_add_to_cart_events</text>
</g>
<!-- daily_begin_checkout_events -->
<g id="node7" class="node">
<title>daily_begin_checkout_events</title>
<path fill="#16213e" stroke="#00d4aa" stroke-width="1.6" d="M563,-369.38C563,-369.38 391,-369.38 391,-369.38 385,-369.38 379,-363.38 379,-357.38 379,-357.38 379,-345.38 379,-345.38 379,-339.38 385,-333.38 391,-333.38 391,-333.38 563,-333.38 563,-333.38 569,-333.38 575,-339.38 575,-345.38 575,-345.38 575,-357.38 575,-357.38 575,-363.38 569,-369.38 563,-369.38"/>
<text text-anchor="middle" x="477" y="-348.57" font-family="Helvetica,sans-Serif" font-size="11.00" fill="#e8e8f2">daily_begin_checkout_events</text>
</g>
<!-- daily_page_view_events -->
<g id="node8" class="node">
<title>daily_page_view_events</title>
<path fill="#16213e" stroke="#00d4aa" stroke-width="1.6" d="M549.5,-317.38C549.5,-317.38 404.5,-317.38 404.5,-317.38 398.5,-317.38 392.5,-311.38 392.5,-305.38 392.5,-305.38 392.5,-293.38 392.5,-293.38 392.5,-287.38 398.5,-281.38 404.5,-281.38 404.5,-281.38 549.5,-281.38 549.5,-281.38 555.5,-281.38 561.5,-287.38 561.5,-293.38 561.5,-293.38 561.5,-305.38 561.5,-305.38 561.5,-311.38 555.5,-317.38 549.5,-317.38"/>
<text text-anchor="middle" x="477" y="-296.57" font-family="Helvetica,sans-Serif" font-size="11.00" fill="#e8e8f2">daily_page_view_events</text>
</g>
<!-- daily_purchase_events -->
<g id="node9" class="node">
<title>daily_purchase_events</title>
<path fill="#16213e" stroke="#00d4aa" stroke-width="1.6" d="M545.5,-265.38C545.5,-265.38 408.5,-265.38 408.5,-265.38 402.5,-265.38 396.5,-259.38 396.5,-253.38 396.5,-253.38 396.5,-241.38 396.5,-241.38 396.5,-235.38 402.5,-229.38 408.5,-229.38 408.5,-229.38 545.5,-229.38 545.5,-229.38 551.5,-229.38 557.5,-235.38 557.5,-241.38 557.5,-241.38 557.5,-253.38 557.5,-253.38 557.5,-259.38 551.5,-265.38 545.5,-265.38"/>
<text text-anchor="middle" x="477" y="-244.57" font-family="Helvetica,sans-Serif" font-size="11.00" fill="#e8e8f2">daily_purchase_events</text>
</g>
<!-- dim_customers -->
<g id="node10" class="node">
<title>dim_customers</title>
<path fill="#16213e" stroke="#00d4aa" stroke-width="1.6" d="M525,-161.38C525,-161.38 429,-161.38 429,-161.38 423,-161.38 417,-155.38 417,-149.38 417,-149.38 417,-137.38 417,-137.38 417,-131.38 423,-125.38 429,-125.38 429,-125.38 525,-125.38 525,-125.38 531,-125.38 537,-131.38 537,-137.38 537,-137.38 537,-149.38 537,-149.38 537,-155.38 531,-161.38 525,-161.38"/>
<text text-anchor="middle" x="477" y="-140.57" font-family="Helvetica,sans-Serif" font-size="11.00" fill="#e8e8f2">dim_customers</text>
</g>
<!-- mart_daily_sales -->
<g id="node13" class="node">
<title>mart_daily_sales</title>
<path fill="#16213e" stroke="#00d4aa" stroke-width="1.6" d="M756,-130.38C756,-130.38 652,-130.38 652,-130.38 646,-130.38 640,-124.38 640,-118.38 640,-118.38 640,-106.38 640,-106.38 640,-100.38 646,-94.38 652,-94.38 652,-94.38 756,-94.38 756,-94.38 762,-94.38 768,-100.38 768,-106.38 768,-106.38 768,-118.38 768,-118.38 768,-124.38 762,-130.38 756,-130.38"/>
<text text-anchor="middle" x="704" y="-109.58" font-family="Helvetica,sans-Serif" font-size="11.00" fill="#e8e8f2">mart_daily_sales</text>
</g>
<!-- dim_customers&#45;&gt;mart_daily_sales -->
<g id="edge11" class="edge">
<title>dim_customers&#45;&gt;mart_daily_sales</title>
<path fill="none" stroke="#8a8fa8" stroke-width="1.6" d="M537.12,-135.23C566.16,-131.23 601.38,-126.38 631.89,-122.17"/>
<polygon fill="#8a8fa8" stroke="#8a8fa8" stroke-width="1.6" points="632.4,-124.93 639.95,-121.06 631.64,-119.38 632.4,-124.93"/>
</g>
<!-- dim_products -->
<g id="node11" class="node">
<title>dim_products</title>
<path fill="#16213e" stroke="#00d4aa" stroke-width="1.6" d="M520,-473.38C520,-473.38 434,-473.38 434,-473.38 428,-473.38 422,-467.38 422,-461.38 422,-461.38 422,-449.38 422,-449.38 422,-443.38 428,-437.38 434,-437.38 434,-437.38 520,-437.38 520,-437.38 526,-437.38 532,-443.38 532,-449.38 532,-449.38 532,-461.38 532,-461.38 532,-467.38 526,-473.38 520,-473.38"/>
<text text-anchor="middle" x="477" y="-452.57" font-family="Helvetica,sans-Serif" font-size="11.00" fill="#e8e8f2">dim_products</text>
</g>
<!-- fct_orders -->
<g id="node12" class="node">
<title>fct_orders</title>
<path fill="#16213e" stroke="#ffb84d" stroke-width="1.6" d="M510.5,-104.38C510.5,-104.38 443.5,-104.38 443.5,-104.38 437.5,-104.38 431.5,-98.38 431.5,-92.38 431.5,-92.38 431.5,-80.38 431.5,-80.38 431.5,-74.38 437.5,-68.38 443.5,-68.38 443.5,-68.38 510.5,-68.38 510.5,-68.38 516.5,-68.38 522.5,-74.38 522.5,-80.38 522.5,-80.38 522.5,-92.38 522.5,-92.38 522.5,-98.38 516.5,-104.38 510.5,-104.38"/>
<text text-anchor="middle" x="477" y="-83.58" font-family="Helvetica,sans-Serif" font-size="11.00" fill="#e8e8f2">fct_orders</text>
</g>
<!-- fct_orders&#45;&gt;mart_daily_sales -->
<g id="edge10" class="edge">
<title>fct_orders&#45;&gt;mart_daily_sales</title>
<path fill="none" stroke="#8a8fa8" stroke-width="1.6" d="M522.72,-91.54C553.82,-95.14 595.93,-100 631.63,-104.13"/>
<polygon fill="#8a8fa8" stroke="#8a8fa8" stroke-width="1.6" points="631.35,-106.91 639.62,-105.05 631.99,-101.35 631.35,-106.91"/>
</g>
<!-- mart_event_funnel -->
<g id="node14" class="node">
<title>mart_event_funnel</title>
<path fill="#16213e" stroke="#00d4aa" stroke-width="1.6" d="M534.5,-213.38C534.5,-213.38 419.5,-213.38 419.5,-213.38 413.5,-213.38 407.5,-207.38 407.5,-201.38 407.5,-201.38 407.5,-189.38 407.5,-189.38 407.5,-183.38 413.5,-177.38 419.5,-177.38 419.5,-177.38 534.5,-177.38 534.5,-177.38 540.5,-177.38 546.5,-183.38 546.5,-189.38 546.5,-189.38 546.5,-201.38 546.5,-201.38 546.5,-207.38 540.5,-213.38 534.5,-213.38"/>
<text text-anchor="middle" x="477" y="-192.57" font-family="Helvetica,sans-Serif" font-size="11.00" fill="#e8e8f2">mart_event_funnel</text>
</g>
<!-- stg_customers&#45;&gt;dim_customers -->
<g id="edge6" class="edge">
<title>stg_customers&#45;&gt;dim_customers</title>
<path fill="none" stroke="#8a8fa8" stroke-width="1.6" d="M310.72,-145.6C340.69,-145.2 377.48,-144.7 408.73,-144.28"/>
<polygon fill="#8a8fa8" stroke="#8a8fa8" stroke-width="1.6" points="409.01,-147.08 416.97,-144.17 408.93,-141.48 409.01,-147.08"/>
</g>
<!-- stg_events&#45;&gt;daily_add_to_cart_events -->
<g id="edge2" class="edge">
<title>stg_events&#45;&gt;daily_add_to_cart_events</title>
<path fill="none" stroke="#8a8fa8" stroke-width="1.6" d="M277.39,-317.49C301.94,-334.98 341.45,-361.14 379,-377.38 383.31,-379.24 387.78,-380.99 392.33,-382.65"/>
<polygon fill="#8a8fa8" stroke="#8a8fa8" stroke-width="1.6" points="391.59,-385.35 400.07,-385.34 393.43,-380.07 391.59,-385.35"/>
</g>
<!-- stg_events&#45;&gt;daily_begin_checkout_events -->
<g id="edge3" class="edge">
<title>stg_events&#45;&gt;daily_begin_checkout_events</title>
<path fill="none" stroke="#8a8fa8" stroke-width="1.6" d="M300.57,-310.47C326.75,-316.57 360.04,-324.34 390.57,-331.45"/>
<polygon fill="#8a8fa8" stroke="#8a8fa8" stroke-width="1.6" points="390.25,-334.26 398.68,-333.35 391.53,-328.8 390.25,-334.26"/>
</g>
<!-- stg_events&#45;&gt;daily_page_view_events -->
<g id="edge1" class="edge">
<title>stg_events&#45;&gt;daily_page_view_events</title>
<path fill="none" stroke="#8a8fa8" stroke-width="1.6" d="M300.57,-299.38C325,-299.38 355.63,-299.38 384.42,-299.38"/>
<polygon fill="#8a8fa8" stroke="#8a8fa8" stroke-width="1.6" points="384.49,-302.18 392.49,-299.38 384.49,-296.58 384.49,-302.18"/>
</g>
<!-- stg_events&#45;&gt;daily_purchase_events -->
<g id="edge4" class="edge">
<title>stg_events&#45;&gt;daily_purchase_events</title>
<path fill="none" stroke="#8a8fa8" stroke-width="1.6" d="M300.57,-288.28C326.75,-282.18 360.04,-274.41 390.57,-267.3"/>
<polygon fill="#8a8fa8" stroke="#8a8fa8" stroke-width="1.6" points="391.53,-269.95 398.68,-265.4 390.25,-264.49 391.53,-269.95"/>
</g>
<!-- stg_events&#45;&gt;mart_event_funnel -->
<g id="edge5" class="edge">
<title>stg_events&#45;&gt;mart_event_funnel</title>
<path fill="none" stroke="#8a8fa8" stroke-width="1.6" d="M277.39,-281.26C301.94,-263.77 341.45,-237.61 379,-221.38 385.58,-218.53 392.55,-215.93 399.62,-213.56"/>
<polygon fill="#8a8fa8" stroke="#8a8fa8" stroke-width="1.6" points="400.54,-216.21 407.3,-211.09 398.83,-210.87 400.54,-216.21"/>
</g>
<!-- stg_order_items&#45;&gt;fct_orders -->
<g id="edge8" class="edge">
<title>stg_order_items&#45;&gt;fct_orders</title>
<path fill="none" stroke="#8a8fa8" stroke-width="1.6" d="M314.23,-86.38C348.35,-86.38 390.4,-86.38 423.08,-86.38"/>
<polygon fill="#8a8fa8" stroke="#8a8fa8" stroke-width="1.6" points="423.17,-89.18 431.17,-86.38 423.17,-83.58 423.17,-89.18"/>
</g>
<!-- stg_orders&#45;&gt;fct_orders -->
<g id="edge9" class="edge">
<title>stg_orders&#45;&gt;fct_orders</title>
<path fill="none" stroke="#8a8fa8" stroke-width="1.6" d="M299.21,-41.19C335.41,-50.44 385.8,-63.32 423.53,-72.96"/>
<polygon fill="#8a8fa8" stroke="#8a8fa8" stroke-width="1.6" points="422.93,-75.7 431.38,-74.97 424.32,-70.27 422.93,-75.7"/>
</g>
<!-- stg_products&#45;&gt;dim_products -->
<g id="edge7" class="edge">
<title>stg_products&#45;&gt;dim_products</title>
<path fill="none" stroke="#8a8fa8" stroke-width="1.6" d="M305.57,-455.38C337.99,-455.38 379.75,-455.38 413.81,-455.38"/>
<polygon fill="#8a8fa8" stroke="#8a8fa8" stroke-width="1.6" points="413.85,-458.18 421.85,-455.38 413.85,-452.58 413.85,-458.18"/>
</g>
</g>
</svg>
